<mxfile host="app.diagrams.net" agent="Mozilla/5.0 (Macintosh; Intel Mac OS X 10_15_7) AppleWebKit/537.36 (KHTML, like Gecko) Chrome/128.0.0.0 Safari/537.36" version="24.7.14">
  <diagram name="Page-1" id="IBaoXE4jhly6vdSAkV7P">
    <mxGraphModel dx="1563" dy="2063" grid="1" gridSize="10" guides="1" tooltips="1" connect="1" arrows="1" fold="1" page="1" pageScale="1" pageWidth="850" pageHeight="1100" math="0" shadow="0">
      <root>
        <mxCell id="0" />
        <mxCell id="1" parent="0" />
        <mxCell id="XH_ZNUdwcMGQFsV0KnFH-10" style="edgeStyle=orthogonalEdgeStyle;rounded=0;orthogonalLoop=1;jettySize=auto;html=1;" edge="1" parent="1" source="XH_ZNUdwcMGQFsV0KnFH-2" target="XH_ZNUdwcMGQFsV0KnFH-9">
          <mxGeometry relative="1" as="geometry" />
        </mxCell>
        <mxCell id="XH_ZNUdwcMGQFsV0KnFH-2" value="Boxes" style="rounded=0;whiteSpace=wrap;html=1;fillColor=#ffe6cc;strokeColor=#d79b00;" vertex="1" parent="1">
          <mxGeometry x="720" y="115" width="90" height="30" as="geometry" />
        </mxCell>
        <mxCell id="XH_ZNUdwcMGQFsV0KnFH-13" style="edgeStyle=orthogonalEdgeStyle;rounded=0;orthogonalLoop=1;jettySize=auto;html=1;" edge="1" parent="1" source="XH_ZNUdwcMGQFsV0KnFH-3" target="XH_ZNUdwcMGQFsV0KnFH-12">
          <mxGeometry relative="1" as="geometry" />
        </mxCell>
        <mxCell id="XH_ZNUdwcMGQFsV0KnFH-14" style="edgeStyle=orthogonalEdgeStyle;rounded=0;orthogonalLoop=1;jettySize=auto;html=1;exitX=0.5;exitY=0;exitDx=0;exitDy=0;entryX=0.5;entryY=1;entryDx=0;entryDy=0;" edge="1" parent="1" source="XH_ZNUdwcMGQFsV0KnFH-3" target="XH_ZNUdwcMGQFsV0KnFH-2">
          <mxGeometry relative="1" as="geometry" />
        </mxCell>
        <mxCell id="XH_ZNUdwcMGQFsV0KnFH-22" style="edgeStyle=orthogonalEdgeStyle;rounded=0;orthogonalLoop=1;jettySize=auto;html=1;entryX=1;entryY=0.5;entryDx=0;entryDy=0;" edge="1" parent="1" source="XH_ZNUdwcMGQFsV0KnFH-3" target="XH_ZNUdwcMGQFsV0KnFH-18">
          <mxGeometry relative="1" as="geometry" />
        </mxCell>
        <mxCell id="XH_ZNUdwcMGQFsV0KnFH-3" value="Products" style="rounded=0;whiteSpace=wrap;html=1;fillColor=#ffe6cc;strokeColor=#d79b00;" vertex="1" parent="1">
          <mxGeometry x="720" y="185" width="90" height="30" as="geometry" />
        </mxCell>
        <mxCell id="XH_ZNUdwcMGQFsV0KnFH-5" value="Picking Team" style="rounded=1;whiteSpace=wrap;html=1;fillColor=#e1d5e7;strokeColor=#9673a6;" vertex="1" parent="1">
          <mxGeometry x="420" y="300" width="100" height="30" as="geometry" />
        </mxCell>
        <mxCell id="XH_ZNUdwcMGQFsV0KnFH-6" value="Packing Team" style="rounded=1;whiteSpace=wrap;html=1;fillColor=#e1d5e7;strokeColor=#9673a6;" vertex="1" parent="1">
          <mxGeometry x="420" y="370" width="100" height="30" as="geometry" />
        </mxCell>
        <mxCell id="XH_ZNUdwcMGQFsV0KnFH-21" style="edgeStyle=orthogonalEdgeStyle;rounded=0;orthogonalLoop=1;jettySize=auto;html=1;entryX=0.5;entryY=0;entryDx=0;entryDy=0;" edge="1" parent="1" source="XH_ZNUdwcMGQFsV0KnFH-9" target="XH_ZNUdwcMGQFsV0KnFH-18">
          <mxGeometry relative="1" as="geometry" />
        </mxCell>
        <mxCell id="XH_ZNUdwcMGQFsV0KnFH-9" value="Orders" style="rounded=1;whiteSpace=wrap;html=1;fillColor=#ffe6cc;strokeColor=#d79b00;" vertex="1" parent="1">
          <mxGeometry x="560" y="115" width="100" height="30" as="geometry" />
        </mxCell>
        <mxCell id="XH_ZNUdwcMGQFsV0KnFH-24" style="edgeStyle=orthogonalEdgeStyle;rounded=0;orthogonalLoop=1;jettySize=auto;html=1;" edge="1" parent="1" source="XH_ZNUdwcMGQFsV0KnFH-12" target="XH_ZNUdwcMGQFsV0KnFH-5">
          <mxGeometry relative="1" as="geometry" />
        </mxCell>
        <mxCell id="XH_ZNUdwcMGQFsV0KnFH-29" style="edgeStyle=orthogonalEdgeStyle;rounded=0;orthogonalLoop=1;jettySize=auto;html=1;entryX=1;entryY=0.5;entryDx=0;entryDy=0;" edge="1" parent="1" source="XH_ZNUdwcMGQFsV0KnFH-12" target="XH_ZNUdwcMGQFsV0KnFH-6">
          <mxGeometry relative="1" as="geometry">
            <Array as="points">
              <mxPoint x="765" y="385" />
            </Array>
          </mxGeometry>
        </mxCell>
        <mxCell id="XH_ZNUdwcMGQFsV0KnFH-12" value="Warehouse" style="rounded=0;whiteSpace=wrap;html=1;fillColor=#e1d5e7;strokeColor=#9673a6;" vertex="1" parent="1">
          <mxGeometry x="720" y="300" width="90" height="30" as="geometry" />
        </mxCell>
        <mxCell id="XH_ZNUdwcMGQFsV0KnFH-15" value="Warehouse has multiple products stored on shelves" style="text;html=1;align=center;verticalAlign=middle;whiteSpace=wrap;rounded=0;" vertex="1" parent="1">
          <mxGeometry x="780" y="250" width="150" height="40" as="geometry" />
        </mxCell>
        <mxCell id="XH_ZNUdwcMGQFsV0KnFH-16" value="Each boxes has multiple products" style="text;html=1;align=center;verticalAlign=middle;whiteSpace=wrap;rounded=0;" vertex="1" parent="1">
          <mxGeometry x="770" y="75" width="120" height="40" as="geometry" />
        </mxCell>
        <mxCell id="XH_ZNUdwcMGQFsV0KnFH-17" value="Order can contain multiple boxes" style="text;html=1;align=center;verticalAlign=middle;whiteSpace=wrap;rounded=0;" vertex="1" parent="1">
          <mxGeometry x="610" y="70" width="120" height="40" as="geometry" />
        </mxCell>
        <mxCell id="XH_ZNUdwcMGQFsV0KnFH-23" style="edgeStyle=orthogonalEdgeStyle;rounded=0;orthogonalLoop=1;jettySize=auto;html=1;entryX=0.5;entryY=0;entryDx=0;entryDy=0;" edge="1" parent="1" source="XH_ZNUdwcMGQFsV0KnFH-18" target="XH_ZNUdwcMGQFsV0KnFH-5">
          <mxGeometry relative="1" as="geometry" />
        </mxCell>
        <mxCell id="XH_ZNUdwcMGQFsV0KnFH-18" value="List of ordered products qty report for next day orders" style="rounded=0;whiteSpace=wrap;html=1;fillColor=#fff2cc;strokeColor=#d6b656;" vertex="1" parent="1">
          <mxGeometry x="410" y="170" width="120" height="60" as="geometry" />
        </mxCell>
        <mxCell id="XH_ZNUdwcMGQFsV0KnFH-25" value="&lt;b style=&quot;font-size: 18px;&quot;&gt;&lt;u style=&quot;font-size: 18px;&quot;&gt;Web Application for Warehouse&lt;/u&gt;&lt;/b&gt;" style="text;html=1;align=center;verticalAlign=middle;whiteSpace=wrap;rounded=0;fontSize=18;" vertex="1" parent="1">
          <mxGeometry x="30" y="-190" width="320" height="30" as="geometry" />
        </mxCell>
        <mxCell id="XH_ZNUdwcMGQFsV0KnFH-27" style="edgeStyle=orthogonalEdgeStyle;rounded=0;orthogonalLoop=1;jettySize=auto;html=1;" edge="1" parent="1" source="XH_ZNUdwcMGQFsV0KnFH-26" target="XH_ZNUdwcMGQFsV0KnFH-18">
          <mxGeometry relative="1" as="geometry" />
        </mxCell>
        <mxCell id="XH_ZNUdwcMGQFsV0KnFH-26" value="&lt;h1 style=&quot;margin-top: 0px;&quot;&gt;&lt;font style=&quot;font-size: 12px;&quot;&gt;&lt;u&gt;Picking Order Report&lt;/u&gt;&lt;/font&gt;&lt;/h1&gt;&lt;div&gt;Single Date Selector (Datepicker)&lt;/div&gt;&lt;div&gt;List of Project table&lt;/div&gt;&lt;div&gt;Table Column Structure: Product Name, Req Qty&lt;/div&gt;&lt;div&gt;Mark picked each item in each row.&amp;nbsp;&lt;/div&gt;&lt;div&gt;&lt;br&gt;&lt;/div&gt;&lt;div&gt;&lt;br&gt;&lt;/div&gt;" style="text;html=1;whiteSpace=wrap;overflow=hidden;rounded=0;strokeColor=#6c8ebf;glass=0;fillColor=#dae8fc;" vertex="1" parent="1">
          <mxGeometry x="40" y="135" width="310" height="130" as="geometry" />
        </mxCell>
        <mxCell id="XH_ZNUdwcMGQFsV0KnFH-31" style="edgeStyle=orthogonalEdgeStyle;rounded=0;orthogonalLoop=1;jettySize=auto;html=1;entryX=0;entryY=0.5;entryDx=0;entryDy=0;" edge="1" parent="1" source="XH_ZNUdwcMGQFsV0KnFH-30" target="XH_ZNUdwcMGQFsV0KnFH-44">
          <mxGeometry relative="1" as="geometry" />
        </mxCell>
        <mxCell id="XH_ZNUdwcMGQFsV0KnFH-30" value="&lt;h1 style=&quot;margin-top: 0px;&quot;&gt;&lt;font style=&quot;font-size: 12px;&quot;&gt;&lt;u&gt;Packing Order Report&lt;/u&gt;&lt;/font&gt;&lt;/h1&gt;&lt;div&gt;Single Date Selector (Datepicker)&lt;/div&gt;&lt;div&gt;List of orders table&lt;/div&gt;&lt;div&gt;Table Column Structure: Order Date, Order Description (Boxes, Product Name, Qty), Recipient Name, Address&lt;/div&gt;&lt;div&gt;Mark picked each item in each row.&amp;nbsp;&lt;/div&gt;&lt;div&gt;&lt;br&gt;&lt;/div&gt;&lt;div&gt;&lt;br&gt;&lt;/div&gt;" style="text;html=1;whiteSpace=wrap;overflow=hidden;rounded=0;strokeColor=#6c8ebf;glass=0;fillColor=#dae8fc;" vertex="1" parent="1">
          <mxGeometry x="40" y="425" width="310" height="130" as="geometry" />
        </mxCell>
        <mxCell id="XH_ZNUdwcMGQFsV0KnFH-33" style="edgeStyle=orthogonalEdgeStyle;rounded=0;orthogonalLoop=1;jettySize=auto;html=1;entryX=0.5;entryY=0;entryDx=0;entryDy=0;" edge="1" parent="1" source="XH_ZNUdwcMGQFsV0KnFH-32" target="XH_ZNUdwcMGQFsV0KnFH-9">
          <mxGeometry relative="1" as="geometry" />
        </mxCell>
        <mxCell id="XH_ZNUdwcMGQFsV0KnFH-32" value="&lt;h1 style=&quot;margin-top: 0px;&quot;&gt;&lt;font style=&quot;font-size: 12px;&quot;&gt;&lt;u&gt;Orders JSON&lt;/u&gt;&lt;/font&gt;&lt;/h1&gt;&lt;div&gt;&lt;div&gt;Order ID&lt;/div&gt;&lt;div&gt;Order Total&lt;/div&gt;&lt;div&gt;Order Date&lt;/div&gt;&lt;div&gt;Shipping address&lt;/div&gt;&lt;div&gt;Customer name&lt;/div&gt;&lt;div&gt;Customer email&lt;/div&gt;&lt;div&gt;Line items&lt;/div&gt;&lt;div&gt;&amp;nbsp; &amp;nbsp; Line item id&lt;/div&gt;&lt;div&gt;&amp;nbsp; &amp;nbsp; Product id&lt;/div&gt;&lt;div&gt;&amp;nbsp; &amp;nbsp; Product name&lt;/div&gt;&lt;div&gt;&amp;nbsp; &amp;nbsp; Price&lt;/div&gt;&lt;/div&gt;&lt;div&gt;&lt;br&gt;&lt;/div&gt;&lt;div&gt;&lt;br&gt;&lt;/div&gt;&lt;div&gt;&lt;br&gt;&lt;/div&gt;" style="text;html=1;whiteSpace=wrap;overflow=hidden;rounded=0;strokeColor=#666666;glass=0;fillColor=#f5f5f5;fontColor=#333333;" vertex="1" parent="1">
          <mxGeometry x="455" y="-190" width="310" height="230" as="geometry" />
        </mxCell>
        <mxCell id="XH_ZNUdwcMGQFsV0KnFH-35" style="edgeStyle=orthogonalEdgeStyle;rounded=0;orthogonalLoop=1;jettySize=auto;html=1;entryX=1;entryY=0.5;entryDx=0;entryDy=0;" edge="1" parent="1" source="XH_ZNUdwcMGQFsV0KnFH-34" target="XH_ZNUdwcMGQFsV0KnFH-2">
          <mxGeometry relative="1" as="geometry" />
        </mxCell>
        <mxCell id="XH_ZNUdwcMGQFsV0KnFH-34" value="&lt;h1 style=&quot;margin-top: 0px;&quot;&gt;&lt;font style=&quot;font-size: 12px;&quot;&gt;&lt;u&gt;Boxes JSON&lt;/u&gt;&lt;/font&gt;&lt;/h1&gt;&lt;div&gt;&lt;div&gt;id: P, U&lt;/div&gt;&lt;div&gt;name&lt;/div&gt;&lt;div&gt;&lt;span style=&quot;background-color: initial;&quot;&gt;products&lt;/span&gt;&lt;/div&gt;&lt;div&gt;&lt;br&gt;&lt;/div&gt;&lt;/div&gt;&lt;div&gt;&lt;br&gt;&lt;/div&gt;&lt;div&gt;&lt;br&gt;&lt;/div&gt;&lt;div&gt;&lt;br&gt;&lt;/div&gt;" style="text;html=1;whiteSpace=wrap;overflow=hidden;rounded=0;strokeColor=#666666;glass=0;fillColor=#f5f5f5;fontColor=#333333;" vertex="1" parent="1">
          <mxGeometry x="930" y="81.88" width="80" height="96.25" as="geometry" />
        </mxCell>
        <mxCell id="XH_ZNUdwcMGQFsV0KnFH-37" style="edgeStyle=orthogonalEdgeStyle;rounded=0;orthogonalLoop=1;jettySize=auto;html=1;exitX=0;exitY=0.5;exitDx=0;exitDy=0;entryX=1;entryY=0.5;entryDx=0;entryDy=0;" edge="1" parent="1" source="XH_ZNUdwcMGQFsV0KnFH-36" target="XH_ZNUdwcMGQFsV0KnFH-3">
          <mxGeometry relative="1" as="geometry" />
        </mxCell>
        <mxCell id="XH_ZNUdwcMGQFsV0KnFH-36" value="&lt;h1 style=&quot;margin-top: 0px;&quot;&gt;&lt;font style=&quot;font-size: 12px;&quot;&gt;&lt;u&gt;Products JSON&lt;/u&gt;&lt;/font&gt;&lt;/h1&gt;&lt;div&gt;&lt;div&gt;id : P, U&lt;/div&gt;&lt;div&gt;name&lt;/div&gt;&lt;div&gt;&lt;span style=&quot;background-color: initial;&quot;&gt;sku&lt;/span&gt;&lt;br&gt;&lt;/div&gt;&lt;div&gt;&lt;span style=&quot;background-color: initial;&quot;&gt;qty&lt;/span&gt;&lt;/div&gt;&lt;div&gt;unit_price&lt;/div&gt;&lt;div&gt;&lt;br&gt;&lt;/div&gt;&lt;/div&gt;&lt;div&gt;&lt;br&gt;&lt;/div&gt;&lt;div&gt;&lt;br&gt;&lt;/div&gt;&lt;div&gt;&lt;br&gt;&lt;/div&gt;" style="text;html=1;whiteSpace=wrap;overflow=hidden;rounded=0;glass=0;fillColor=#f5f5f5;fontColor=#333333;strokeColor=#666666;" vertex="1" parent="1">
          <mxGeometry x="1040" y="138.75" width="110" height="122.5" as="geometry" />
        </mxCell>
        <mxCell id="XH_ZNUdwcMGQFsV0KnFH-38" value="Assume This is pre defined pack with pre defined product qty per each item" style="text;html=1;align=center;verticalAlign=middle;whiteSpace=wrap;rounded=0;fillColor=#f8cecc;strokeColor=#b85450;" vertex="1" parent="1">
          <mxGeometry x="1010" y="25" width="190" height="50" as="geometry" />
        </mxCell>
        <mxCell id="XH_ZNUdwcMGQFsV0KnFH-39" value="Assume Order will be pick and pack on day before for next day orders based on requirements" style="text;html=1;align=center;verticalAlign=middle;whiteSpace=wrap;rounded=0;fillColor=#f8cecc;strokeColor=#b85450;" vertex="1" parent="1">
          <mxGeometry x="40" y="50" width="190" height="50" as="geometry" />
        </mxCell>
        <mxCell id="XH_ZNUdwcMGQFsV0KnFH-40" value="Assume Customer can not select each boxes product qty all are pre defined" style="text;html=1;align=center;verticalAlign=middle;whiteSpace=wrap;rounded=0;fillColor=#f8cecc;strokeColor=#b85450;" vertex="1" parent="1">
          <mxGeometry x="780" y="-190" width="190" height="50" as="geometry" />
        </mxCell>
        <mxCell id="XH_ZNUdwcMGQFsV0KnFH-42" value="&lt;h1 style=&quot;margin-top: 0px;&quot;&gt;Future Updates for DATABASE&lt;/h1&gt;&lt;p&gt;Boxes can have discount column&lt;/p&gt;&lt;p&gt;Boxes can have fixed price&lt;/p&gt;&lt;p&gt;Products can have multiple variants (color, size, features, etc..)&lt;/p&gt;&lt;p&gt;Customer order table can have multiple columns for shipping address (city, region, buzz code, location type: [apartment, home, business, hospital], additional delivery info), customer/ sender, recipient (name, contact phone number, email ), product, boxes, contact info, additional notes,&amp;nbsp; notification opt out, recipient message from sender, etc&lt;/p&gt;" style="text;html=1;whiteSpace=wrap;overflow=hidden;rounded=0;fillColor=#fff2cc;strokeColor=#d6b656;" vertex="1" parent="1">
          <mxGeometry x="930" y="640" width="380" height="230" as="geometry" />
        </mxCell>
        <mxCell id="XH_ZNUdwcMGQFsV0KnFH-43" value="&lt;h1 style=&quot;margin-top: 0px;&quot;&gt;Future Updates BACKEND PORTAL&lt;/h1&gt;&lt;p&gt;Rest API needs to be more secure with authorization, rate limits, data sanitization,&amp;nbsp;&lt;/p&gt;&lt;p&gt;Auth0 Okta can integrate with login logout with a specific provider. google company email. rest of security can handle it, though Okta&amp;nbsp;&lt;/p&gt;&lt;p&gt;GO through OWSAP security and check back all implementation&lt;/p&gt;&lt;p&gt;User-based authentication can be implemented for picking and packing team members&lt;/p&gt;&lt;p&gt;base on user privileges can give access to reports and other process modules&lt;/p&gt;&lt;p&gt;can give after pick and pack marking option for each order then the supply chain is easily to catch all picking and packing level completed orders.&lt;/p&gt;&lt;p&gt;&lt;br&gt;&lt;/p&gt;&lt;p&gt;&lt;br&gt;&lt;/p&gt;&lt;p&gt;&lt;br&gt;&lt;/p&gt;" style="text;html=1;whiteSpace=wrap;overflow=hidden;rounded=0;fillColor=#d5e8d4;strokeColor=#82b366;" vertex="1" parent="1">
          <mxGeometry x="510" y="590" width="410" height="280" as="geometry" />
        </mxCell>
        <mxCell id="XH_ZNUdwcMGQFsV0KnFH-45" style="edgeStyle=orthogonalEdgeStyle;rounded=0;orthogonalLoop=1;jettySize=auto;html=1;entryX=0.5;entryY=1;entryDx=0;entryDy=0;" edge="1" parent="1" source="XH_ZNUdwcMGQFsV0KnFH-44" target="XH_ZNUdwcMGQFsV0KnFH-6">
          <mxGeometry relative="1" as="geometry" />
        </mxCell>
        <mxCell id="XH_ZNUdwcMGQFsV0KnFH-44" value="List of ordered details report for next day orders" style="rounded=0;whiteSpace=wrap;html=1;fillColor=#fff2cc;strokeColor=#d6b656;" vertex="1" parent="1">
          <mxGeometry x="410" y="460" width="120" height="60" as="geometry" />
        </mxCell>
        <mxCell id="XH_ZNUdwcMGQFsV0KnFH-46" value="&lt;h1 style=&quot;margin-top: 0px;&quot;&gt;&lt;span style=&quot;background-color: initial;&quot;&gt;My Initial solution for this assessment&lt;/span&gt;&lt;/h1&gt;&lt;h1 style=&quot;margin-top: 0px;&quot;&gt;&lt;span style=&quot;font-size: 12px; font-weight: 400;&quot;&gt;I&#39;m not going to implement logins and security at this moment.&amp;nbsp;&lt;/span&gt;&lt;/h1&gt;&lt;div&gt;&lt;span style=&quot;font-size: 12px; font-weight: 400;&quot;&gt;just want to implement basic rest API for fetch data for orders boxes products&amp;nbsp;&lt;/span&gt;&lt;/div&gt;&lt;div&gt;&lt;span style=&quot;font-size: 12px; font-weight: 400;&quot;&gt;&lt;br&gt;&lt;/span&gt;&lt;/div&gt;&lt;div&gt;and want to create 2 interfaces for the picking and packing team separately to view next-day orders select date picker&lt;/div&gt;&lt;div&gt;&lt;br&gt;&lt;/div&gt;&lt;div&gt;and want to create a common view for seeing the numbers of all orders and their details with the stages of picking and packing&lt;/div&gt;&lt;div&gt;&lt;br&gt;&lt;/div&gt;&lt;div&gt;for now, I will add all 3 modules to one dashboard. and the rest API will be public. because I&#39;m not going to implement security and other user components at this stage&lt;/div&gt;&lt;div&gt;&lt;br&gt;&lt;/div&gt;&lt;div&gt;Next Js 14.2 will be used with pre-defined JSON data. later mongo db can use&lt;/div&gt;&lt;div&gt;&lt;br&gt;&lt;/div&gt;&lt;div&gt;&lt;br&gt;&lt;/div&gt;&lt;div&gt;&lt;br&gt;&lt;/div&gt;&lt;p&gt;&lt;br&gt;&lt;/p&gt;&lt;p&gt;&lt;br&gt;&lt;/p&gt;" style="text;html=1;whiteSpace=wrap;overflow=hidden;rounded=0;fillColor=#b0e3e6;strokeColor=#0e8088;" vertex="1" parent="1">
          <mxGeometry x="50" y="580" width="450" height="290" as="geometry" />
        </mxCell>
      </root>
    </mxGraphModel>
  </diagram>
</mxfile>
